PathFileType	4	(X/Y/Z)	C:\Users\italobelli\Desktop\GitHub\PTbot_officialCBL\Personal_Results\SHRUG01_noisy1.trc
DataRate	CameraRate	NumFrames	NumMarkers	Units	OrigDataRate	OrigDataStartFrame	OrigNumFrames
110.888889	110.888889	46	9	m	110.888889	376	500
Frame#	Time		gu		centelbow		EpL		centpxt8		centijc7		ij		ts		aa		ai
			X1	Y1	Z1	X2	Y2	Z2	X3	Y3	Z3	X4	Y4	Z4	X5	Y5	Z5	X6	Y6	Z6	X7	Y7	Z7	X8	Y8	Z8	X9	Y9	Z9

376	3.3818	-0.080959	-0.01389	0.16487	-0.10406	-0.24911	0.19546	-0.081521	-0.24428	0.21804	-0.046816	-0.15316	-0.008669	-0.046816	0.031938	-0.008669	0	0	0	-0.1394	0.030398	0.053908	-0.10801	0.025478	0.16887	-0.16329	-0.080328	0.061121
377	3.3908	-0.081008	-0.013876	0.16486	-0.10409	-0.24904	0.19548	-0.081557	-0.2442	0.21805	-0.046816	-0.15316	-0.008669	-0.046816	0.031938	-0.008669	0	0	0	-0.13942	0.030409	0.053897	-0.10804	0.025497	0.16887	-0.1633	-0.080316	0.061114
378	3.3998	-0.081055	-0.013863	0.16486	-0.10413	-0.24896	0.19549	-0.081592	-0.24413	0.21806	-0.046816	-0.15316	-0.008669	-0.046816	0.031938	-0.008669	0	0	0	-0.13943	0.030419	0.053887	-0.10808	0.025515	0.16886	-0.16332	-0.080305	0.061108
379	3.4088	-0.081101	-0.013848	0.16485	-0.10416	-0.2489	0.19551	-0.081626	-0.24406	0.21808	-0.046816	-0.15316	-0.008669	-0.046816	0.031938	-0.008669	0	0	0	-0.13944	0.030429	0.053878	-0.10811	0.025533	0.16886	-0.16333	-0.080295	0.061103
380	3.4178	-0.081146	-0.013834	0.16485	-0.10419	-0.24884	0.19553	-0.081659	-0.24399	0.21809	-0.046816	-0.15316	-0.008669	-0.046816	0.031938	-0.008669	0	0	0	-0.13945	0.030438	0.053869	-0.10815	0.025551	0.16886	-0.16335	-0.080286	0.061099
381	3.4269	-0.08119	-0.01382	0.16485	-0.10422	-0.24878	0.19555	-0.081692	-0.24393	0.21811	-0.046816	-0.15316	-0.008669	-0.046816	0.031938	-0.008669	0	0	0	-0.13946	0.030446	0.05386	-0.10818	0.025569	0.16885	-0.16337	-0.080277	0.061095
382	3.4359	-0.081232	-0.013805	0.16484	-0.10425	-0.24873	0.19557	-0.081724	-0.24388	0.21814	-0.046816	-0.15316	-0.008669	-0.046816	0.031938	-0.008669	0	0	0	-0.13947	0.030453	0.053853	-0.10821	0.025586	0.16885	-0.16338	-0.08027	0.061093
383	3.4449	-0.081272	-0.01379	0.16484	-0.10428	-0.24869	0.1956	-0.081755	-0.24383	0.21816	-0.046816	-0.15316	-0.008669	-0.046816	0.031938	-0.008669	0	0	0	-0.13948	0.030459	0.053845	-0.10824	0.025603	0.16885	-0.1634	-0.080264	0.061091
384	3.4539	-0.081311	-0.013775	0.16484	-0.10431	-0.24865	0.19563	-0.081785	-0.24379	0.21819	-0.046816	-0.15316	-0.008669	-0.046816	0.031938	-0.008669	0	0	0	-0.13949	0.030464	0.053839	-0.10827	0.02562	0.16885	-0.16341	-0.080258	0.061091
385	3.4629	-0.081349	-0.013759	0.16483	-0.10434	-0.24861	0.19566	-0.081813	-0.24376	0.21822	-0.046816	-0.15316	-0.008669	-0.046816	0.031938	-0.008669	0	0	0	-0.1395	0.030468	0.053833	-0.1083	0.025636	0.16885	-0.16343	-0.080254	0.061091
386	3.4719	-0.081384	-0.013743	0.16483	-0.10436	-0.24859	0.1957	-0.081841	-0.24373	0.21825	-0.046816	-0.15316	-0.008669	-0.046816	0.031938	-0.008669	0	0	0	-0.13951	0.030471	0.053828	-0.10833	0.025652	0.16885	-0.16344	-0.080251	0.061092
387	3.481	-0.081418	-0.013727	0.16483	-0.10439	-0.24857	0.19573	-0.081868	-0.24371	0.21829	-0.046816	-0.15316	-0.008669	-0.046816	0.031938	-0.008669	0	0	0	-0.13952	0.030473	0.053823	-0.10835	0.025667	0.16885	-0.16346	-0.080249	0.061095
388	3.49	-0.081451	-0.013711	0.16482	-0.10441	-0.24856	0.19577	-0.081894	-0.2437	0.21833	-0.046816	-0.15316	-0.008669	-0.046816	0.031938	-0.008669	0	0	0	-0.13953	0.030473	0.053819	-0.10838	0.025682	0.16885	-0.16347	-0.080248	0.061098
389	3.499	-0.081481	-0.013694	0.16482	-0.10444	-0.24855	0.19582	-0.081919	-0.24369	0.21837	-0.046816	-0.15316	-0.008669	-0.046816	0.031938	-0.008669	0	0	0	-0.13954	0.030473	0.053816	-0.10841	0.025696	0.16885	-0.16349	-0.080249	0.061102
390	3.508	-0.08151	-0.013677	0.16482	-0.10446	-0.24855	0.19586	-0.081943	-0.24369	0.21841	-0.046816	-0.15316	-0.008669	-0.046816	0.031938	-0.008669	0	0	0	-0.13955	0.030472	0.053814	-0.10843	0.02571	0.16885	-0.1635	-0.08025	0.061108
391	3.517	-0.081538	-0.01366	0.16482	-0.10448	-0.24856	0.19591	-0.081967	-0.2437	0.21846	-0.046816	-0.15316	-0.008669	-0.046816	0.031938	-0.008669	0	0	0	-0.13956	0.03047	0.053812	-0.10846	0.025724	0.16885	-0.16352	-0.080252	0.061114
392	3.5261	-0.081566	-0.013642	0.16481	-0.1045	-0.24858	0.19597	-0.081989	-0.24372	0.21851	-0.046816	-0.15316	-0.008669	-0.046816	0.031938	-0.008669	0	0	0	-0.13957	0.030468	0.05381	-0.10848	0.025737	0.16886	-0.16353	-0.080254	0.061121
393	3.5351	-0.081593	-0.013624	0.16481	-0.10453	-0.24861	0.19602	-0.082012	-0.24375	0.21857	-0.046816	-0.15316	-0.008669	-0.046816	0.031938	-0.008669	0	0	0	-0.13958	0.030465	0.053809	-0.1085	0.025749	0.16886	-0.16355	-0.080256	0.061129
394	3.5441	-0.08162	-0.013606	0.16481	-0.10455	-0.24864	0.19609	-0.082033	-0.24378	0.21863	-0.046816	-0.15316	-0.008669	-0.046816	0.031938	-0.008669	0	0	0	-0.13959	0.030461	0.053808	-0.10853	0.02576	0.16886	-0.16357	-0.080258	0.061137
395	3.5531	-0.081647	-0.013588	0.16481	-0.10456	-0.24868	0.19615	-0.082054	-0.24382	0.2187	-0.046816	-0.15316	-0.008669	-0.046816	0.031938	-0.008669	0	0	0	-0.1396	0.030457	0.053807	-0.10855	0.025772	0.16886	-0.16358	-0.080261	0.061147
396	3.5621	-0.081673	-0.013569	0.1648	-0.10458	-0.24872	0.19622	-0.082074	-0.24386	0.21876	-0.046816	-0.15316	-0.008669	-0.046816	0.031938	-0.008669	0	0	0	-0.13961	0.030453	0.053807	-0.10857	0.025782	0.16887	-0.1636	-0.080264	0.061157
397	3.5711	-0.081699	-0.01355	0.1648	-0.1046	-0.24878	0.1963	-0.082094	-0.24392	0.21884	-0.046816	-0.15316	-0.008669	-0.046816	0.031938	-0.008669	0	0	0	-0.13962	0.030448	0.053807	-0.1086	0.025792	0.16887	-0.16361	-0.080267	0.061168
398	3.5802	-0.081724	-0.013531	0.1648	-0.10462	-0.24884	0.19637	-0.082112	-0.24398	0.21892	-0.046816	-0.15316	-0.008669	-0.046816	0.031938	-0.008669	0	0	0	-0.13963	0.030443	0.053807	-0.10862	0.025802	0.16888	-0.16363	-0.080271	0.061179
399	3.5892	-0.081748	-0.013512	0.1648	-0.10463	-0.2489	0.19646	-0.082131	-0.24404	0.219	-0.046816	-0.15316	-0.008669	-0.046816	0.031938	-0.008669	0	0	0	-0.13964	0.030437	0.053808	-0.10864	0.025811	0.16888	-0.16365	-0.080275	0.061192
400	3.5982	-0.081772	-0.013492	0.1648	-0.10465	-0.24897	0.19654	-0.082148	-0.24411	0.21908	-0.046816	-0.15316	-0.008669	-0.046816	0.031938	-0.008669	0	0	0	-0.13965	0.030431	0.053809	-0.10866	0.02582	0.16888	-0.16366	-0.080278	0.061205
401	3.6072	-0.081795	-0.013472	0.16479	-0.10466	-0.24905	0.19663	-0.082165	-0.24419	0.21917	-0.046816	-0.15316	-0.008669	-0.046816	0.031938	-0.008669	0	0	0	-0.13966	0.030425	0.053811	-0.10868	0.025829	0.16889	-0.16368	-0.080282	0.061219
402	3.6162	-0.081818	-0.013452	0.16479	-0.10468	-0.24913	0.19672	-0.082182	-0.24427	0.21927	-0.046816	-0.15316	-0.008669	-0.046816	0.031938	-0.008669	0	0	0	-0.13967	0.030418	0.053812	-0.1087	0.025837	0.16889	-0.1637	-0.080287	0.061233
403	3.6253	-0.081841	-0.013432	0.16479	-0.10469	-0.24921	0.19681	-0.082197	-0.24435	0.21936	-0.046816	-0.15316	-0.008669	-0.046816	0.031938	-0.008669	0	0	0	-0.13969	0.030411	0.053815	-0.10872	0.025845	0.1689	-0.16372	-0.080291	0.061248
404	3.6343	-0.081863	-0.013411	0.16479	-0.1047	-0.24931	0.19691	-0.082212	-0.24444	0.21946	-0.046816	-0.15316	-0.008669	-0.046816	0.031938	-0.008669	0	0	0	-0.1397	0.030403	0.053817	-0.10874	0.025852	0.1689	-0.16373	-0.080296	0.061264
405	3.6433	-0.081884	-0.013391	0.16479	-0.10472	-0.2494	0.19701	-0.082227	-0.24454	0.21956	-0.046816	-0.15316	-0.008669	-0.046816	0.031938	-0.008669	0	0	0	-0.13971	0.030395	0.05382	-0.10876	0.025859	0.16891	-0.16375	-0.080301	0.061281
406	3.6523	-0.081905	-0.01337	0.16479	-0.10473	-0.2495	0.19712	-0.08224	-0.24464	0.21967	-0.046816	-0.15316	-0.008669	-0.046816	0.031938	-0.008669	0	0	0	-0.13972	0.030387	0.053823	-0.10878	0.025866	0.16892	-0.16377	-0.080306	0.061298
407	3.6613	-0.081925	-0.013348	0.16479	-0.10474	-0.2496	0.19722	-0.082253	-0.24474	0.21978	-0.046816	-0.15316	-0.008669	-0.046816	0.031938	-0.008669	0	0	0	-0.13973	0.030379	0.053827	-0.1088	0.025873	0.16892	-0.16378	-0.080311	0.061316
408	3.6703	-0.081944	-0.013327	0.16479	-0.10475	-0.24971	0.19733	-0.082266	-0.24484	0.21989	-0.046816	-0.15316	-0.008669	-0.046816	0.031938	-0.008669	0	0	0	-0.13974	0.030371	0.053831	-0.10882	0.025879	0.16893	-0.1638	-0.080316	0.061335
409	3.6794	-0.081963	-0.013305	0.16479	-0.10476	-0.24981	0.19744	-0.082278	-0.24495	0.22	-0.046816	-0.15316	-0.008669	-0.046816	0.031938	-0.008669	0	0	0	-0.13975	0.030362	0.053835	-0.10884	0.025886	0.16894	-0.16382	-0.080321	0.061354
410	3.6884	-0.081982	-0.013283	0.16479	-0.10476	-0.24993	0.19756	-0.082289	-0.24506	0.22012	-0.046816	-0.15316	-0.008669	-0.046816	0.031938	-0.008669	0	0	0	-0.13976	0.030353	0.053839	-0.10886	0.025892	0.16894	-0.16384	-0.080327	0.061374
411	3.6974	-0.082	-0.01326	0.16478	-0.10477	-0.25004	0.19768	-0.082299	-0.24517	0.22024	-0.046816	-0.15316	-0.008669	-0.046816	0.031938	-0.008669	0	0	0	-0.13977	0.030344	0.053844	-0.10887	0.025898	0.16895	-0.16385	-0.080332	0.061394
412	3.7064	-0.082017	-0.013238	0.16478	-0.10478	-0.25015	0.1978	-0.082309	-0.24529	0.22037	-0.046816	-0.15316	-0.008669	-0.046816	0.031938	-0.008669	0	0	0	-0.13978	0.030335	0.053849	-0.10889	0.025904	0.16896	-0.16387	-0.080338	0.061415
413	3.7154	-0.082034	-0.013215	0.16478	-0.10479	-0.25027	0.19792	-0.082318	-0.24541	0.22049	-0.046816	-0.15316	-0.008669	-0.046816	0.031938	-0.008669	0	0	0	-0.13979	0.030325	0.053855	-0.10891	0.02591	0.16896	-0.16389	-0.080344	0.061436
414	3.7244	-0.08205	-0.013192	0.16478	-0.10479	-0.25039	0.19804	-0.082327	-0.24553	0.22062	-0.046816	-0.15316	-0.008669	-0.046816	0.031938	-0.008669	0	0	0	-0.13981	0.030316	0.053861	-0.10892	0.025915	0.16897	-0.1639	-0.080349	0.061458
415	3.7335	-0.082065	-0.013169	0.16478	-0.1048	-0.25051	0.19817	-0.082335	-0.24565	0.22075	-0.046816	-0.15316	-0.008669	-0.046816	0.031938	-0.008669	0	0	0	-0.13982	0.030306	0.053867	-0.10894	0.025921	0.16898	-0.16392	-0.080355	0.061481
416	3.7425	-0.08208	-0.013146	0.16478	-0.1048	-0.25064	0.1983	-0.082342	-0.24577	0.22088	-0.046816	-0.15316	-0.008669	-0.046816	0.031938	-0.008669	0	0	0	-0.13983	0.030297	0.053873	-0.10895	0.025927	0.16899	-0.16394	-0.080361	0.061504
417	3.7515	-0.082094	-0.013122	0.16478	-0.1048	-0.25076	0.19843	-0.082349	-0.24589	0.22101	-0.046816	-0.15316	-0.008669	-0.046816	0.031938	-0.008669	0	0	0	-0.13984	0.030287	0.05388	-0.10896	0.025933	0.169	-0.16395	-0.080367	0.061528
418	3.7605	-0.082108	-0.013098	0.16478	-0.10481	-0.25088	0.19856	-0.082354	-0.24601	0.22115	-0.046816	-0.15316	-0.008669	-0.046816	0.031938	-0.008669	0	0	0	-0.13985	0.030277	0.053887	-0.10898	0.025938	0.169	-0.16397	-0.080373	0.061552
419	3.7695	-0.082121	-0.013074	0.16478	-0.10481	-0.25101	0.1987	-0.08236	-0.24614	0.22129	-0.046816	-0.15316	-0.008669	-0.046816	0.031938	-0.008669	0	0	0	-0.13986	0.030268	0.053894	-0.10899	0.025944	0.16901	-0.16399	-0.080379	0.061577
420	3.7786	-0.082133	-0.01305	0.16479	-0.10481	-0.25113	0.19883	-0.082364	-0.24626	0.22143	-0.046816	-0.15316	-0.008669	-0.046816	0.031938	-0.008669	0	0	0	-0.13987	0.030258	0.053901	-0.109	0.02595	0.16902	-0.164	-0.080385	0.061602
421	3.7876	-0.082145	-0.013025	0.16479	-0.10481	-0.25125	0.19897	-0.082368	-0.24638	0.22157	-0.046816	-0.15316	-0.008669	-0.046816	0.031938	-0.008669	0	0	0	-0.13988	0.030248	0.053909	-0.10902	0.025956	0.16903	-0.16402	-0.080391	0.061628
